<?xml version="1.0" encoding="UTF-8"?><!DOCTYPE svg PUBLIC "-//W3C//DTD SVG 1.1//EN" "http://www.w3.org/Graphics/SVG/1.1/DTD/svg11.dtd"><!-- Creator: CorelDRAW --><svg xmlns="http://www.w3.org/2000/svg" xmlns:xlink="http://www.w3.org/1999/xlink" xmlns:xodm="http://www.corel.com/coreldraw/odm/2003" xml:space="preserve" width="442" height="379" version="1.1" style="shape-rendering:geometricPrecision; text-rendering:geometricPrecision; image-rendering:optimizeQuality; fill-rule:evenodd; clip-rule:evenodd" viewBox="7619.99625 2143.125 11694.577578125 10027.708333333332">
 <defs>
  <style type="text/css">
   <![CDATA[
    .fil1 {fill:#F05C4E}
    .fil2 {fill:#354F9F}
    .fil0 {fill:#354F9F;fill-rule:nonzero}
   ]]>
  </style>
 </defs>
 <g id="Layer_x0020_1">
  <metadata id="CorelCorpID_0Corel-Layer"/>
  <g id="_1552719146000">
   <path class="fil0" d="M3941.84 14842.28l0 -203.4 -564.27 0 0 -229.67c19.68,-170.56 131.24,-255.87 334.63,-255.87l229.64 0 0 -721.75c-131.23,-19.68 -269.03,-26.24 -419.91,-26.24 -649.59,0 -1036.7,262.44 -1003.9,925.14l0 3562.77 872.66 0 0 -2611.39 118.12 0c236.19,0 433.03,-203.39 433.03,-439.59zm433.03 -1410.69l0 682.38 872.67 0 0 -255.91c6.56,-282.11 -131.24,-426.47 -419.92,-426.47l-452.75 0zm0 990.74l0 3470.93 872.67 0 0 -3050.98c0,-282.15 -137.8,-419.95 -419.92,-419.95l-452.75 0zm2158.64 2329.27l-892.3 0c0,400.23 131.2,702.07 393.67,898.9 236.2,203.4 603.63,308.36 1089.18,308.36 918.58,0 1587.81,-314.92 1587.81,-1167.9 0,-236.19 -78.72,-446.15 -242.76,-616.75 -190.27,-177.15 -577.39,-328.07 -1167.9,-446.18 -452.74,-85.29 -675.82,-223.08 -675.82,-400.24 0,-177.15 170.6,-268.99 511.79,-268.99 288.67,0 465.83,85.28 524.87,236.19 52.52,137.8 183.72,209.96 387.15,216.52l551.11 0c-19.68,-360.87 -157.44,-642.99 -413.35,-846.39 -262.44,-196.83 -616.75,-295.27 -1062.9,-295.27 -793.94,13.12 -1384.45,367.43 -1384.45,1115.42 6.56,544.59 400.23,885.78 1167.9,1023.58 597.1,104.96 898.9,249.31 898.9,426.47 0,223.07 -183.72,328.07 -551.15,328.07 -426.47,0 -702.03,-131.24 -721.75,-511.79zm4894.74 -636.43l0 1778.09 866.07 0 0 -2014.32c26.24,-754.54 -203.4,-1220.38 -688.91,-1397.53 -649.59,-229.64 -1194.17,-85.32 -1640.33,426.47l0 -1036.66c0,-288.71 -144.35,-439.63 -433.03,-439.63l-439.63 0 0 4461.67 872.66 0 0 -1778.09c0,-531.47 223.08,-964.53 741.43,-964.53 498.63,0 721.74,380.55 721.74,964.53zm2709.79 -1502.56l0 -190.28 -524.91 0 0 -551.11c0,-229.67 -190.27,-439.63 -419.91,-439.63l-452.75 0 0 3792.4c-6.56,387.12 150.92,590.55 478.99,623.35 328.07,32.8 636.43,32.8 918.58,6.56l0 -662.71 -269.03 0c-170.6,0 -255.88,-78.72 -255.88,-223.07l0 -1922.44 91.84 0c242.79,0 433.07,-183.72 433.07,-433.07zm1915.85 -242.76c-1049.78,0 -1574.69,597.07 -1574.69,1804.36 0,1194.14 524.91,1797.77 1574.69,1797.77 1049.82,0 1581.28,-603.63 1581.28,-1797.77 0,-1207.29 -531.46,-1804.36 -1581.28,-1804.36zm0 767.67c446.19,0 669.26,334.63 669.26,1010.45 -6.56,688.91 -229.63,1043.22 -675.82,1043.22 -446.15,0 -675.79,-341.19 -682.35,-1016.98 0,-688.94 229.64,-1036.69 688.91,-1036.69zm2453.95 -1705.93l-452.75 0 0 4461.67 872.66 0 0 -1266.33c0,-91.84 45.92,-150.92 137.79,-170.6 111.53,0 223.08,98.44 334.6,295.27l616.79 1141.66 1049.78 0 -1213.82 -2060.24 1200.7 -1286.01 -1049.78 0 -1076.06 1233.53 0 -1922.48c0,-229.63 -190.28,-426.47 -419.91,-426.47zm2749.14 4461.67l885.79 0 0 -1804.36c0,-505.2 242.75,-761.11 728.3,-761.11l295.24 0 0 -905.46 -124.64 0c-1161.34,0 -1758.45,557.71 -1784.69,1679.69l0 1791.24zm2447.36 -4461.67l0 682.38 872.66 0 0 -255.91c6.56,-282.11 -131.24,-426.47 -419.92,-426.47l-452.74 0zm0 990.74l0 3470.93 872.66 0 0 -3050.98c0,-282.15 -137.8,-419.95 -419.92,-419.95l-452.74 0z"/>
   <path class="fil1" d="M12138.86 11233.31l1407.64 -820.4 1407.61 820.4 0 789.75 -1407.75 -811.45 -1407.5 811.45 0 -789.75zm-1210.23 -3738.3c40.85,-14.75 625.75,-392.39 654.65,-422.82 -59.14,-47.97 -119.64,-498.73 -125.53,-608.62 -11.98,-223.26 20.68,-455.73 74.43,-652.46 96.21,-351.87 287.44,-674.05 541.26,-927.69l1286.79 -1286.69c41.53,-41.45 145.96,-156.48 186.24,-180.28 40.71,24.04 148.29,142.37 190.38,184.43l552.07 552.03c248.33,248.25 490.23,490.69 738.87,738.8 35.61,35.53 57.02,65.89 91.1,99.72 193.61,192.01 372.96,569.23 447.32,839.15 96.31,349.56 94.08,776.24 -13.29,1129.56 -9.65,31.74 -23.98,112.13 -52.31,129 21.21,25.93 270.35,180.14 322.05,212.16 57.02,35.35 111.13,69.71 166.8,107.23 36.2,24.4 133.11,91.41 169.53,105.24 11.24,-53.08 51.1,-136.3 70.99,-191.83 70.49,-196.7 120.32,-419.92 143.36,-629.45 72.77,-661.78 -78.43,-1303 -423.35,-1851.59 -76.31,-121.38 -182.15,-255.91 -274.03,-365.06 -17.66,-20.99 -45.67,-47.69 -65.35,-67.34 -345.2,-345.16 -684.23,-683.94 -1029.5,-1029.28 -173.51,-173.54 -341.12,-341.16 -514.7,-514.7l-519.94 -516.5c-35.92,25.53 -90.42,87.02 -125.6,122.19l-1930.17 1930c-120.85,120.35 -249.04,289.38 -341.23,430.65 -425.84,652.53 -558.56,1517.32 -351.12,2281.47 38.83,142.98 85.6,253.51 130.28,382.68zm2154.2 -2397.31c0,284.35 220.53,496.54 440.45,496.54l66.41 0c243.29,0 447.4,-229.96 451.55,-471.54 4.22,-246.52 -205.21,-482.89 -443.25,-482.89l-74.71 0c-228.75,0 -440.45,230.59 -440.45,457.89z"/>
   <path class="fil2" d="M8416.95 8931.2l921.45 -588.59 1406.26 892.69 1393.88 -886.91 1408.11 875.03 1394.98 -874.08 1376.86 885.96 1406.29 -892.69 945.46 601.36 -267.83 718.94 -677.81 -449.91 -1395.58 890.57 -1386.97 -887.28 -1395.44 887.63 -1407.96 -890.32 -1420.26 890.64 -1381.12 -890.64 -648.38 433.81 -271.94 -716.21zm-595.19 -1553.63l1516.64 -968.82 1406.26 892.69 1393.88 -886.91 1408.11 875.03 1394.98 -874.08 1376.86 885.96 1406.29 -892.69 1546.75 983.79 -274.67 702.74 -1272.15 -816.89 -1395.69 891.31 -1386.97 -887.27 -1395.44 887.63 -1407.96 -890.32 -1420.26 890.64 -1381.12 -890.64 -1245.48 803.34 -270.03 -705.51z"/>
  </g>
 </g>
</svg>